<svg width="218" height="39" viewBox="0 0 218 39" fill="none" xmlns="http://www.w3.org/2000/svg">
<path d="M59.144 10.852V13.79H54.308V29H50.668V13.79H45.832V10.852H59.144ZM61.1239 21.746C61.1239 20.29 61.4099 18.9987 61.9819 17.872C62.5712 16.7453 63.3599 15.8787 64.3479 15.272C65.3532 14.6653 66.4712 14.362 67.7019 14.362C68.7765 14.362 69.7125 14.5787 70.5099 15.012C71.3245 15.4453 71.9745 15.9913 72.4599 16.65V14.596H76.1259V29H72.4599V26.894C71.9919 27.57 71.3419 28.1333 70.5099 28.584C69.6952 29.0173 68.7505 29.234 67.6759 29.234C66.4625 29.234 65.3532 28.922 64.3479 28.298C63.3599 27.674 62.5712 26.7987 61.9819 25.672C61.4099 24.528 61.1239 23.2193 61.1239 21.746ZM72.4599 21.798C72.4599 20.914 72.2865 20.16 71.9399 19.536C71.5932 18.8947 71.1252 18.4093 70.5359 18.08C69.9465 17.7333 69.3139 17.56 68.6379 17.56C67.9619 17.56 67.3379 17.7247 66.7659 18.054C66.1939 18.3833 65.7259 18.8687 65.3619 19.51C65.0152 20.134 64.8419 20.8793 64.8419 21.746C64.8419 22.6127 65.0152 23.3753 65.3619 24.034C65.7259 24.6753 66.1939 25.1693 66.7659 25.516C67.3552 25.8627 67.9792 26.036 68.6379 26.036C69.3139 26.036 69.9465 25.8713 70.5359 25.542C71.1252 25.1953 71.5932 24.71 71.9399 24.086C72.2865 23.4447 72.4599 22.682 72.4599 21.798ZM85.583 14.362C86.6576 14.362 87.6023 14.5787 88.417 15.012C89.2316 15.428 89.873 15.974 90.341 16.65V14.596H94.007V29.104C94.007 30.4387 93.7383 31.626 93.201 32.666C92.6636 33.7233 91.8576 34.5553 90.783 35.162C89.7083 35.786 88.4083 36.098 86.883 36.098C84.8376 36.098 83.1563 35.6213 81.839 34.668C80.539 33.7147 79.8023 32.4147 79.629 30.768H83.243C83.4336 31.4267 83.841 31.9467 84.465 32.328C85.1063 32.7267 85.8776 32.926 86.779 32.926C87.8363 32.926 88.6943 32.6053 89.353 31.964C90.0116 31.34 90.341 30.3867 90.341 29.104V26.868C89.873 27.544 89.223 28.1073 88.391 28.558C87.5763 29.0087 86.6403 29.234 85.583 29.234C84.3696 29.234 83.2603 28.922 82.255 28.298C81.2496 27.674 80.4523 26.7987 79.863 25.672C79.291 24.528 79.005 23.2193 79.005 21.746C79.005 20.29 79.291 18.9987 79.863 17.872C80.4523 16.7453 81.241 15.8787 82.229 15.272C83.2343 14.6653 84.3523 14.362 85.583 14.362ZM90.341 21.798C90.341 20.914 90.1676 20.16 89.821 19.536C89.4743 18.8947 89.0063 18.4093 88.417 18.08C87.8276 17.7333 87.195 17.56 86.519 17.56C85.843 17.56 85.219 17.7247 84.647 18.054C84.075 18.3833 83.607 18.8687 83.243 19.51C82.8963 20.134 82.723 20.8793 82.723 21.746C82.723 22.6127 82.8963 23.3753 83.243 24.034C83.607 24.6753 84.075 25.1693 84.647 25.516C85.2363 25.8627 85.8603 26.036 86.519 26.036C87.195 26.036 87.8276 25.8713 88.417 25.542C89.0063 25.1953 89.4743 24.71 89.821 24.086C90.1676 23.4447 90.341 22.682 90.341 21.798ZM103.464 14.362C104.539 14.362 105.483 14.5787 106.298 15.012C107.113 15.428 107.754 15.974 108.222 16.65V14.596H111.888V29.104C111.888 30.4387 111.619 31.626 111.082 32.666C110.545 33.7233 109.739 34.5553 108.664 35.162C107.589 35.786 106.289 36.098 104.764 36.098C102.719 36.098 101.037 35.6213 99.72 34.668C98.42 33.7147 97.6834 32.4147 97.51 30.768H101.124C101.315 31.4267 101.722 31.9467 102.346 32.328C102.987 32.7267 103.759 32.926 104.66 32.926C105.717 32.926 106.575 32.6053 107.234 31.964C107.893 31.34 108.222 30.3867 108.222 29.104V26.868C107.754 27.544 107.104 28.1073 106.272 28.558C105.457 29.0087 104.521 29.234 103.464 29.234C102.251 29.234 101.141 28.922 100.136 28.298C99.1307 27.674 98.3334 26.7987 97.744 25.672C97.172 24.528 96.886 23.2193 96.886 21.746C96.886 20.29 97.172 18.9987 97.744 17.872C98.3334 16.7453 99.122 15.8787 100.11 15.272C101.115 14.6653 102.233 14.362 103.464 14.362ZM108.222 21.798C108.222 20.914 108.049 20.16 107.702 19.536C107.355 18.8947 106.887 18.4093 106.298 18.08C105.709 17.7333 105.076 17.56 104.4 17.56C103.724 17.56 103.1 17.7247 102.528 18.054C101.956 18.3833 101.488 18.8687 101.124 19.51C100.777 20.134 100.604 20.8793 100.604 21.746C100.604 22.6127 100.777 23.3753 101.124 24.034C101.488 24.6753 101.956 25.1693 102.528 25.516C103.117 25.8627 103.741 26.036 104.4 26.036C105.076 26.036 105.709 25.8713 106.298 25.542C106.887 25.1953 107.355 24.71 107.702 24.086C108.049 23.4447 108.222 22.682 108.222 21.798ZM117.549 12.88C116.908 12.88 116.37 12.6807 115.937 12.282C115.521 11.866 115.313 11.3547 115.313 10.748C115.313 10.1413 115.521 9.63867 115.937 9.24C116.37 8.824 116.908 8.616 117.549 8.616C118.19 8.616 118.719 8.824 119.135 9.24C119.568 9.63867 119.785 10.1413 119.785 10.748C119.785 11.3547 119.568 11.866 119.135 12.282C118.719 12.6807 118.19 12.88 117.549 12.88ZM119.343 14.596V29H115.703V14.596H119.343ZM131.181 14.388C132.897 14.388 134.284 14.934 135.341 16.026C136.399 17.1007 136.927 18.6087 136.927 20.55V29H133.287V21.044C133.287 19.9 133.001 19.0247 132.429 18.418C131.857 17.794 131.077 17.482 130.089 17.482C129.084 17.482 128.287 17.794 127.697 18.418C127.125 19.0247 126.839 19.9 126.839 21.044V29H123.199V14.596H126.839V16.39C127.325 15.766 127.94 15.2807 128.685 14.934C129.448 14.57 130.28 14.388 131.181 14.388ZM146.291 14.362C147.366 14.362 148.31 14.5787 149.125 15.012C149.94 15.428 150.581 15.974 151.049 16.65V14.596H154.715V29.104C154.715 30.4387 154.446 31.626 153.909 32.666C153.372 33.7233 152.566 34.5553 151.491 35.162C150.416 35.786 149.116 36.098 147.591 36.098C145.546 36.098 143.864 35.6213 142.547 34.668C141.247 33.7147 140.51 32.4147 140.337 30.768H143.951C144.142 31.4267 144.549 31.9467 145.173 32.328C145.814 32.7267 146.586 32.926 147.487 32.926C148.544 32.926 149.402 32.6053 150.061 31.964C150.72 31.34 151.049 30.3867 151.049 29.104V26.868C150.581 27.544 149.931 28.1073 149.099 28.558C148.284 29.0087 147.348 29.234 146.291 29.234C145.078 29.234 143.968 28.922 142.963 28.298C141.958 27.674 141.16 26.7987 140.571 25.672C139.999 24.528 139.713 23.2193 139.713 21.746C139.713 20.29 139.999 18.9987 140.571 17.872C141.16 16.7453 141.949 15.8787 142.937 15.272C143.942 14.6653 145.06 14.362 146.291 14.362ZM151.049 21.798C151.049 20.914 150.876 20.16 150.529 19.536C150.182 18.8947 149.714 18.4093 149.125 18.08C148.536 17.7333 147.903 17.56 147.227 17.56C146.551 17.56 145.927 17.7247 145.355 18.054C144.783 18.3833 144.315 18.8687 143.951 19.51C143.604 20.134 143.431 20.8793 143.431 21.746C143.431 22.6127 143.604 23.3753 143.951 24.034C144.315 24.6753 144.783 25.1693 145.355 25.516C145.944 25.8627 146.568 26.036 147.227 26.036C147.903 26.036 148.536 25.8713 149.125 25.542C149.714 25.1953 150.182 24.71 150.529 24.086C150.876 23.4447 151.049 22.682 151.049 21.798ZM177.335 10.852V13.79H172.499V29H168.859V13.79H164.023V10.852H177.335ZM186.647 29.234C185.261 29.234 184.013 28.9307 182.903 28.324C181.794 27.7 180.919 26.8247 180.277 25.698C179.653 24.5713 179.341 23.2713 179.341 21.798C179.341 20.3247 179.662 19.0247 180.303 17.898C180.962 16.7713 181.855 15.9047 182.981 15.298C184.108 14.674 185.365 14.362 186.751 14.362C188.138 14.362 189.395 14.674 190.521 15.298C191.648 15.9047 192.532 16.7713 193.173 17.898C193.832 19.0247 194.161 20.3247 194.161 21.798C194.161 23.2713 193.823 24.5713 193.147 25.698C192.489 26.8247 191.587 27.7 190.443 28.324C189.317 28.9307 188.051 29.234 186.647 29.234ZM186.647 26.062C187.306 26.062 187.921 25.906 188.493 25.594C189.083 25.2647 189.551 24.7793 189.897 24.138C190.244 23.4967 190.417 22.7167 190.417 21.798C190.417 20.4287 190.053 19.38 189.325 18.652C188.615 17.9067 187.739 17.534 186.699 17.534C185.659 17.534 184.784 17.9067 184.073 18.652C183.38 19.38 183.033 20.4287 183.033 21.798C183.033 23.1673 183.371 24.2247 184.047 24.97C184.741 25.698 185.607 26.062 186.647 26.062ZM203.487 29.234C202.101 29.234 200.853 28.9307 199.743 28.324C198.634 27.7 197.759 26.8247 197.117 25.698C196.493 24.5713 196.181 23.2713 196.181 21.798C196.181 20.3247 196.502 19.0247 197.143 17.898C197.802 16.7713 198.695 15.9047 199.821 15.298C200.948 14.674 202.205 14.362 203.591 14.362C204.978 14.362 206.235 14.674 207.361 15.298C208.488 15.9047 209.372 16.7713 210.013 17.898C210.672 19.0247 211.001 20.3247 211.001 21.798C211.001 23.2713 210.663 24.5713 209.987 25.698C209.329 26.8247 208.427 27.7 207.283 28.324C206.157 28.9307 204.891 29.234 203.487 29.234ZM203.487 26.062C204.146 26.062 204.761 25.906 205.333 25.594C205.923 25.2647 206.391 24.7793 206.737 24.138C207.084 23.4967 207.257 22.7167 207.257 21.798C207.257 20.4287 206.893 19.38 206.165 18.652C205.455 17.9067 204.579 17.534 203.539 17.534C202.499 17.534 201.624 17.9067 200.913 18.652C200.22 19.38 199.873 20.4287 199.873 21.798C199.873 23.1673 200.211 24.2247 200.887 24.97C201.581 25.698 202.447 26.062 203.487 26.062ZM217.571 9.76V29H213.931V9.76H217.571Z" fill="black"/>
<path d="M18.5003 35.8876C17.4674 35.8876 16.4191 35.6564 15.602 35.1784L7.12286 30.2914C3.66952 27.9634 3.45369 27.6089 3.45369 23.9551V15.0443C3.45369 11.3905 3.65411 11.0359 7.04577 8.73887L15.5866 3.80553C17.2053 2.86512 19.7491 2.86512 21.3678 3.80553L29.8778 8.70803C33.3311 11.0359 33.547 11.3905 33.547 15.0443V23.9397C33.547 27.5934 33.3466 27.948 29.9549 30.2451L21.4141 35.1784C20.5816 35.6564 19.5332 35.8876 18.5003 35.8876ZM18.5003 5.42428C17.8528 5.42428 17.2207 5.54762 16.7736 5.8097L8.29452 10.7122C5.78161 12.408 5.78161 12.408 5.78161 15.0443V23.9397C5.78161 26.5759 5.78161 26.5759 8.35619 28.318L16.7736 33.1743C17.6832 33.6984 19.3328 33.6984 20.2424 33.1743L28.7216 28.2718C31.2191 26.5759 31.2191 26.5759 31.2191 23.9397V15.0443C31.2191 12.408 31.2191 12.408 28.6445 10.6659L20.227 5.8097C19.7799 5.54762 19.1478 5.42428 18.5003 5.42428Z" fill="black"/>
<path d="M18.5 25.2812C15.3088 25.2812 12.7188 22.6912 12.7188 19.5C12.7188 16.3088 15.3088 13.7188 18.5 13.7188C21.6912 13.7188 24.2812 16.3088 24.2812 19.5C24.2812 22.6912 21.6912 25.2812 18.5 25.2812ZM18.5 16.0312C16.5883 16.0312 15.0312 17.5883 15.0312 19.5C15.0312 21.4117 16.5883 22.9688 18.5 22.9688C20.4117 22.9688 21.9688 21.4117 21.9688 19.5C21.9688 17.5883 20.4117 16.0312 18.5 16.0312Z" fill="black"/>
</svg>
